HIERARCHY
ROOT Hips
{
	OFFSET -0.179506 -22.333345 2.821913
	CHANNELS 6 Xposition Yposition Zposition Zrotation Yrotation Xrotation 
	JOINT LeftUpLeg
	{
		OFFSET 6.951974 -9.140623 -0.681533
		CHANNELS 3 Zrotation Yrotation Xrotation
		JOINT LeftLeg
		{
			OFFSET 3.427654 -37.519855 -0.449580
			CHANNELS 3 Zrotation Yrotation Xrotation
			JOINT LeftFoot
			{
				OFFSET -1.359570 -39.796059 -4.369333
				CHANNELS 3 Zrotation Yrotation Xrotation
				JOINT LeftToe
				{
					OFFSET 2.635814 -5.579078 11.928840
					CHANNELS 3 Zrotation Yrotation Xrotation
					End Site
					{
						OFFSET 0.000000 0.000000 0.000000
					}
				}
			}
		}
	}
	JOINT RightUpLeg
	{
		OFFSET -6.767048 -9.052170 -0.431982
		CHANNELS 3 Zrotation Yrotation Xrotation
		JOINT RightLeg
		{
			OFFSET -3.829005 -38.256897 -0.885003
			CHANNELS 3 Zrotation Yrotation Xrotation
			JOINT RightFoot
			{
				OFFSET 1.577377 -39.841461 -4.231180
				CHANNELS 3 Zrotation Yrotation Xrotation
				JOINT RightToe
				{
					OFFSET -2.537174 -4.814398 12.334795
					CHANNELS 3 Zrotation Yrotation Xrotation
					End Site
					{
						OFFSET 0.000000 0.000000 0.000000
					}
				}
			}
		}
	}
	JOINT Spine
	{
		OFFSET -0.253288 10.896323 -2.669631
		CHANNELS 3 Zrotation Yrotation Xrotation
		JOINT Spine1
		{
			OFFSET 0.548704 13.518043 0.109247
			CHANNELS 3 Zrotation Yrotation Xrotation
			JOINT Spine2
			{
				OFFSET 0.145701 5.292222 2.542457
				CHANNELS 3 Zrotation Yrotation Xrotation
				JOINT Neck
				{
					OFFSET -0.277840 21.387037 -4.285703
					CHANNELS 3 Zrotation Yrotation Xrotation
					JOINT Head
					{
						OFFSET 0.515184 6.496960 5.134897
						CHANNELS 3 Zrotation Yrotation Xrotation
						End Site
						{
							OFFSET 0.000000 0.000000 0.000000
						}
					}
				}
				JOINT LeftShoulder
				{
					OFFSET 7.884473 12.174932 -3.408961
					CHANNELS 3 Zrotation Yrotation Xrotation
					JOINT LeftArm
					{
						OFFSET 9.097692 3.046888 -0.886815
						CHANNELS 3 Zrotation Yrotation Xrotation
						JOINT LeftForeArm
						{
							OFFSET 25.961220 -1.277207 -2.745643
							CHANNELS 3 Zrotation Yrotation Xrotation
							JOINT LeftHand
							{
								OFFSET 24.923361 0.898606 -0.117091
								CHANNELS 3 Zrotation Yrotation Xrotation
								End Site
								{
									OFFSET 0.000000 0.000000 0.000000
								}
							}
						}
					}
				}
				JOINT RightShoulder
				{
					OFFSET -8.175920 11.883285 -3.861528
					CHANNELS 3 Zrotation Yrotation Xrotation
					JOINT RightArm
					{
						OFFSET -9.601238 3.255117 -0.914307
						CHANNELS 3 Zrotation Yrotation Xrotation
						JOINT RightForeArm
						{
							OFFSET -25.374195 -1.332924 -2.140099
							CHANNELS 3 Zrotation Yrotation Xrotation
							JOINT RightHand
							{
								OFFSET -25.529810 0.777228 -0.555919
								CHANNELS 3 Zrotation Yrotation Xrotation
								End Site
								{
									OFFSET 0.000000 0.000000 0.000000
								}
							}
						}
					}
				}
			}
		}
	}
}
MOTION
Frames: 18
Frame Time: 0.033333
8.016954 -56.934345 91.227814 -77.816255 5.169549 81.276332 20.973979 7.375013 -3.325689 -0.161765 8.807253 39.755436 -3.194845 2.564111 -27.645694 nan nan nan -14.818321 -12.931819 -9.451972 -0.023122 -10.773649 22.357105 8.833809 1.698066 -7.420085 nan nan nan -8.113948 5.282307 7.233426 6.474759 -5.322577 9.401148 2.113484 1.254733 -3.298708 1.175531 -21.557124 7.689052 10.190738 -38.427982 11.615483 -6.279333 -17.526576 0.443329 -79.346339 -44.941808 35.824039 158.219702 -85.811448 -130.040821 13.330091 -32.814573 -45.426578 17.328325 9.582662 3.781991 42.814080 11.455374 -9.529240 -60.889052 41.571084 -49.718487 6.006696 22.200909 -28.852177 
8.039063 -56.916119 91.215591 -77.780488 5.251970 81.307888 21.076202 7.403848 -3.434214 -0.216075 8.703979 39.825259 -3.152368 2.652018 -27.680457 nan nan nan -14.733625 -12.846970 -9.467565 0.047705 -10.815982 22.318947 8.795201 1.520546 -7.513736 nan nan nan -8.019498 5.176786 7.254605 6.411332 -5.249778 9.081431 2.096123 1.249111 -2.937930 1.355830 -21.545056 7.259487 9.897888 -38.578014 12.045498 -6.173883 -17.573847 0.382459 -79.302276 -44.977462 35.749965 158.890650 -85.891205 -130.416110 14.217334 -32.403975 -45.903322 17.203497 9.531070 3.741504 43.365463 11.752326 -9.275564 -61.251987 41.528249 -49.509527 4.338934 21.559731 -29.756457 
8.057578 -56.907070 91.208153 -77.785237 5.272819 81.362155 21.092287 7.477475 -3.529595 -0.140528 8.729464 39.869945 -3.171526 2.617472 -27.665766 nan nan nan -14.686881 -12.798443 -9.536472 0.069885 -10.798797 22.310097 8.838484 1.406791 -7.492624 nan nan nan -8.044821 5.106802 7.158488 6.377236 -5.173327 9.000627 2.128179 1.298446 -2.722839 1.424571 -21.772098 6.991969 9.770591 -38.503551 12.295592 -6.095679 -17.608923 0.319947 -79.370087 -45.063883 35.905372 158.168676 -85.868266 -129.884671 14.183522 -32.385667 -45.521675 17.237439 9.425911 3.694399 43.163211 11.723246 -9.263717 -61.004139 41.538809 -49.999574 4.908986 21.963645 -29.306138 
8.066836 -56.902069 91.203583 -77.829498 5.281414 81.373842 21.097047 7.497053 -3.535472 -0.080692 8.790779 39.875786 -3.137260 2.546384 -27.669249 nan nan nan -14.672503 -12.730631 -9.575024 0.077960 -10.784831 22.344115 8.834797 1.391766 -7.418613 nan nan nan -8.014514 5.050229 7.139604 6.344882 -5.120833 8.959349 2.138308 1.241758 -2.654214 1.349533 -21.844935 6.934598 9.717907 -38.399691 12.385391 -6.064676 -17.458893 0.246561 -79.485637 -45.037789 35.927768 160.167041 -85.838552 -131.975109 13.790676 -32.548624 -45.120750 17.098870 9.424442 3.733437 43.244938 11.833792 -9.209147 -60.900156 41.601464 -50.403196 4.991653 22.113953 -28.995375 
8.073310 -56.896965 91.207253 -77.877032 5.281584 81.363775 21.105873 7.522065 -3.518151 -0.079260 8.815758 39.893265 -3.115601 2.500559 -27.690122 nan nan nan -14.648430 -12.727315 -9.597455 0.047951 -10.734969 22.381589 8.845860 1.430173 -7.336487 nan nan nan -7.995661 5.012123 7.130324 6.313589 -5.090914 8.931095 2.144409 1.217331 -2.647187 1.266353 -21.828711 6.982578 9.687348 -38.334692 12.430671 -6.063626 -17.412327 0.236255 -79.512549 -44.981129 35.862437 161.498523 -85.827419 -133.378410 13.547502 -32.595267 -45.107923 16.983341 9.451338 3.788262 43.383313 11.921775 -9.182315 -60.914168 41.645410 -50.508519 4.995821 22.112828 -28.883518 
8.089724 -56.884262 91.202301 -77.924819 5.303287 81.354841 21.142939 7.513062 -3.512139 -0.093725 8.848467 39.912414 -3.073299 2.539134 -27.703762 nan nan nan -14.584456 -12.664017 -9.623676 0.025469 -10.703551 22.393634 8.806567 1.377970 -7.377728 nan nan nan -7.984093 4.991645 7.107448 6.288702 -5.073510 8.963776 2.133862 1.256919 -2.657722 1.266295 -21.820950 6.983439 9.723164 -38.272841 12.386005 -6.020821 -17.451829 0.213764 -79.540355 -44.957056 35.888515 161.479310 -85.815823 -133.358536 13.617555 -32.557708 -45.280469 16.936150 9.495714 3.766967 43.438509 11.915794 -9.171323 -60.925852 41.571479 -50.377877 5.198137 22.173318 -28.770938 
8.103337 -56.872646 91.193703 -77.983468 5.322069 81.314993 21.191339 7.526636 -3.460606 -0.129874 8.818419 39.920247 -3.101220 2.584713 -27.695383 nan nan nan -14.542188 -12.649300 -9.624074 0.011351 -10.699590 22.394154 8.769226 1.350552 -7.404323 nan nan nan -7.973822 4.981237 7.174001 6.263436 -5.052909 8.945964 2.128411 1.343543 -2.678502 1.289888 -21.793800 6.940184 9.801846 -38.202217 12.270609 -5.973574 -17.490827 0.172230 -79.586632 -44.953862 35.930742 161.406747 -85.848117 -133.121307 13.890746 -32.453788 -45.602773 16.916283 9.514102 3.738577 43.409128 11.820849 -9.200216 -60.942680 41.611670 -50.090932 5.194590 22.233526 -28.996489 
8.115199 -56.856979 91.194923 -78.021502 5.315616 81.279459 21.183542 7.521129 -3.427996 -0.109964 8.811194 39.916864 -3.144771 2.628868 -27.709578 nan nan nan -14.547154 -12.630188 -9.639275 0.020262 -10.679513 22.436055 8.756911 1.314285 -7.388964 nan nan nan -8.051567 4.989532 7.233155 6.258338 -5.035820 8.877277 2.112851 1.464176 -2.663438 1.492981 -21.791611 6.839936 9.755522 -38.231425 12.334171 -5.946834 -17.564440 0.247942 -79.659230 -45.058217 36.088653 160.408711 -85.972327 -132.021548 14.319734 -32.383654 -45.769805 17.076092 9.414511 3.659959 43.307660 11.742347 -9.088458 -60.906996 41.666536 -49.977949 4.924980 22.376364 -29.458767 
8.129313 -56.838940 91.189560 -78.023833 5.315691 81.264398 21.185175 7.545065 -3.456653 -0.034869 8.824621 39.979447 -3.070701 2.627214 -27.718787 nan nan nan -14.544660 -12.632177 -9.637869 0.070785 -10.591080 22.451584 8.641343 1.242260 -7.436796 nan nan nan -8.094791 4.985651 7.263954 6.244089 -5.013115 8.791589 2.083136 1.513149 -2.614264 1.679903 -21.786654 6.694151 9.640859 -38.255923 12.507976 -5.889968 -17.586858 0.324024 -79.752518 -45.162512 36.222851 159.870787 -86.084746 -131.444440 14.594438 -32.402277 -45.823445 17.166338 9.309863 3.632277 43.295854 11.784558 -8.965829 -60.867471 41.669905 -50.083059 4.806274 22.445448 -29.725985 
8.144601 -56.833641 91.184540 -78.046333 5.317575 81.237568 21.189708 7.541264 -3.437551 -0.038888 8.769853 39.983233 -2.985846 2.652009 -27.728430 nan nan nan -14.549892 -12.588060 -9.619140 0.126593 -10.490568 22.438702 8.612557 1.216041 -7.468566 nan nan nan -8.087929 4.993509 7.292109 6.239915 -4.985583 8.768732 2.057473 1.498928 -2.581118 1.767054 -21.727176 6.516733 9.491080 -38.341372 12.689515 -5.832975 -17.552423 0.335298 -79.826559 -45.224871 36.244650 159.847681 -86.129691 -131.188134 14.695495 -32.496082 -45.919848 17.155564 9.269068 3.580909 43.273770 11.849100 -8.960432 -60.864836 41.684241 -49.665386 5.006231 22.470726 -29.769530 
8.152818 -56.840466 91.173515 -78.100010 5.266493 81.220436 21.136454 7.598609 -3.410566 0.026270 8.811807 39.999281 -2.744163 2.673036 -27.767469 nan nan nan -14.644492 -12.568086 -9.625547 0.196153 -10.421518 22.442762 8.719909 1.237888 -7.462830 nan nan nan -8.124706 4.989447 7.295406 6.235468 -4.950454 8.790246 2.037607 1.515167 -2.612792 1.720295 -21.745615 6.486859 9.375675 -38.320881 12.773125 -5.830234 -17.495610 0.381061 -79.880741 -45.294529 36.311799 160.144100 -86.160043 -131.606006 14.864993 -32.475321 -45.844247 17.192240 9.243135 3.619236 43.262944 11.904993 -8.905159 -60.913687 41.717512 -50.059284 4.977770 22.541256 -29.621681 
8.162142 -56.843506 91.169327 -78.160301 5.226885 81.228552 21.099182 7.593414 -3.395370 -0.002630 8.880284 39.986326 -2.706349 2.722177 -27.826592 nan nan nan -14.698929 -12.537586 -9.686089 0.218879 -10.449389 22.474244 8.817894 1.283029 -7.417909 nan nan nan -8.162560 5.014537 7.216464 6.235564 -4.945618 8.889600 2.017583 1.545059 -2.681808 1.718849 -21.697046 6.515147 9.371554 -38.349272 12.670559 -5.817810 -17.542317 0.408485 -79.891637 -45.264982 36.307200 159.210406 -86.108622 -130.539377 14.826684 -32.467826 -45.842528 17.153507 9.257910 3.622052 43.250649 11.877487 -8.940108 -60.959511 41.732482 -49.734323 5.337727 22.457588 -29.635256 
8.164311 -56.839001 91.152161 -78.168385 5.229786 81.212355 21.092364 7.573625 -3.373325 -0.015454 8.863993 39.969446 -2.858066 2.678000 -27.742674 nan nan nan -14.699415 -12.603994 -9.686534 0.215889 -10.481279 22.475499 8.889027 1.330371 -7.391041 nan nan nan -8.145694 5.008026 7.176764 6.219067 -4.960247 8.925107 1.997137 1.545564 -2.676293 1.660871 -21.678350 6.518813 9.372944 -38.297323 12.656002 -5.776576 -17.483345 0.341054 -79.988566 -45.266900 36.435453 158.654743 -86.146081 -130.196251 14.873304 -32.487381 -45.729252 17.121215 9.252991 3.621333 43.370162 11.951111 -8.785953 -60.935360 41.684484 -50.268113 5.058493 22.565592 -29.626108 
8.160904 -56.820068 91.147125 -78.141100 5.278560 81.142373 21.166228 7.576639 -3.311635 -0.056648 8.781193 39.969917 -2.953580 2.654359 -27.700596 nan nan nan -14.655395 -12.679743 -9.565563 0.245614 -10.400793 22.412836 8.841010 1.322599 -7.468872 nan nan nan -8.110483 4.987186 7.214521 6.204001 -4.985454 8.961594 2.002708 1.550556 -2.672257 1.608209 -21.706765 6.435001 9.256457 -38.264980 12.878237 -5.780497 -17.421253 0.244707 -80.063833 -45.242397 36.473255 159.197087 -86.208847 -130.819343 14.822056 -32.481720 -45.571240 17.064595 9.292748 3.650763 43.462359 11.968792 -8.715773 -61.001392 41.677430 -50.712732 4.975778 22.532452 -29.652403 
8.166767 -56.810322 91.147095 -78.104091 5.300157 81.126534 21.184317 7.578018 -3.317344 -0.027292 8.756369 39.979801 -2.906237 2.626459 -27.729767 nan nan nan -14.664900 -12.707737 -9.513936 0.262628 -10.413305 22.383107 8.879510 1.367733 -7.435360 nan nan nan -8.099025 4.973626 7.256220 6.191544 -4.985885 8.915617 1.999715 1.545780 -2.689799 1.563509 -21.749404 6.455675 9.212818 -38.294888 12.993039 -5.810616 -17.356228 0.190870 -80.157482 -45.201942 36.569797 159.904309 -86.288227 -131.566251 14.868760 -32.528899 -45.502651 17.058490 9.272639 3.662423 43.461735 11.930288 -8.655916 -60.941767 41.711844 -50.795015 4.895419 22.435895 -29.536265 
8.173765 -56.799355 91.154083 -78.077508 5.292100 81.084131 21.167736 7.556500 -3.295615 -0.029181 8.709842 39.992183 -2.910716 2.579801 -27.767881 nan nan nan -14.709475 -12.705174 -9.410388 0.267171 -10.442351 22.325384 8.899494 1.461126 -7.346774 nan nan nan -8.108214 5.024975 7.280659 6.186032 -5.003706 8.890846 1.981748 1.528202 -2.667136 1.578425 -21.718898 6.458092 9.187953 -38.417664 13.043856 -5.796044 -17.382150 0.187342 -80.175223 -45.207014 36.633605 159.616030 -86.351760 -131.354591 15.086357 -32.608772 -45.427531 17.129352 9.254216 3.644276 43.419757 11.901672 -8.614694 -60.976668 41.732463 -50.820086 4.739881 22.320815 -29.434619 
8.184917 -56.792015 91.153297 -78.090020 5.300246 81.003819 21.195019 7.555320 -3.226801 -0.017438 8.710013 40.006921 -2.925532 2.592704 -27.767668 nan nan nan -14.706456 -12.683035 -9.330243 0.259718 -10.425227 22.334687 8.781862 1.486616 -7.366709 nan nan nan -8.076370 5.034022 7.286855 6.165725 -5.004097 8.910577 1.952482 1.517407 -2.597807 1.564322 -21.641106 6.490376 9.216020 -38.495477 13.012413 -5.786232 -17.426667 0.167860 -80.138482 -45.222639 36.581386 159.134781 -86.385588 -130.852687 15.074127 -32.678690 -45.488781 17.101775 9.303791 3.643984 43.443891 11.965981 -8.622300 -61.010794 41.732214 -50.575954 4.494233 22.108998 -29.387446 
8.199534 -56.787552 91.141998 -78.083308 5.339801 80.947897 21.245553 7.517876 -3.198044 -0.052541 8.686641 40.023726 -2.922011 2.692085 -27.788121 nan nan nan -14.687251 -12.660880 -9.276331 0.276236 -10.460681 22.349389 8.685339 1.440659 -7.377643 nan nan nan -8.033731 5.064635 7.294636 6.171775 -4.993452 8.981453 1.939039 1.497064 -2.607620 1.602091 -21.580863 6.461404 9.255037 -38.625644 12.960899 -5.755907 -17.522307 0.178100 -80.169374 -45.254299 36.516846 158.154494 -86.387145 -129.584503 14.925188 -32.714214 -45.729148 16.985068 9.324752 3.607386 43.480209 11.953884 -8.709997 -61.122615 41.771340 -49.785073 4.665709 21.824491 -29.672941 
